<svg viewBox="0 0 640 728" xmlns="http://www.w3.org/2000/svg" xmlns:inkspace="http://www.inkscape.org/namespaces/inkscape" xmlns:xlink="http://www.w3.org/1999/xlink" height="100%" width="100%" style="width: 100%; height: 100%;">
  <defs id="defs_block">
    <filter height="1.504" id="filter_blur" inkspace:collect="always" width="1.1575" x="-0.07875" y="-0.252">
      <feGaussianBlur id="feGaussianBlur3780" inkspace:collect="always" stdDeviation="4.2"></feGaussianBlur>
    </filter>
  </defs>
  <title>MDT PXE process</title>
  <desc>seqdiag {
  Device -&gt; "DHCP Server" [label = "Asks for DHCP configuration\n(including PXE service info)"];
  Device &lt;- "DHCP Server" [label = "Returns DHCP configuration\n(including PXE service info)"];
  Device -&gt; "MDT Server" [label = "Performs Boot Service Discover"];
  Device &lt;- "MDT Server" [label = "Sends PXE boot information"];
  Device -&gt; "MDT Server" [label = "Requests BCD file via TFTP"];
  Device &lt;- "MDT Server" [label = "Delivers BCD file via TFTP"];
  Device -&gt; "MDT Server" [label = "Requests WIM file via TFTP"];
  Device &lt;- "MDT Server" [label = "Delivers WIM file via TFTP"];
}</desc>
  <rect fill="rgb(0,0,0)" height="535" style="filter:url(#filter_blur);opacity:0.7;fill-opacity:1" width="8" x="127" y="171"></rect>
  <rect fill="rgb(0,0,0)" height="95" style="filter:url(#filter_blur);opacity:0.7;fill-opacity:1" width="8" x="319" y="171"></rect>
  <rect fill="rgb(0,0,0)" height="65" style="filter:url(#filter_blur);opacity:0.7;fill-opacity:1" width="8" x="511" y="331"></rect>
  <rect fill="rgb(0,0,0)" height="65" style="filter:url(#filter_blur);opacity:0.7;fill-opacity:1" width="8" x="511" y="463"></rect>
  <rect fill="rgb(0,0,0)" height="65" style="filter:url(#filter_blur);opacity:0.7;fill-opacity:1" width="8" x="511" y="595"></rect>
  <rect fill="rgb(0,0,0)" height="40" stroke="rgb(0,0,0)" style="filter:url(#filter_blur);opacity:0.7;fill-opacity:1" width="128" x="67" y="46"></rect>
  <rect fill="rgb(0,0,0)" height="40" stroke="rgb(0,0,0)" style="filter:url(#filter_blur);opacity:0.7;fill-opacity:1" width="128" x="259" y="46"></rect>
  <rect fill="rgb(0,0,0)" height="40" stroke="rgb(0,0,0)" style="filter:url(#filter_blur);opacity:0.7;fill-opacity:1" width="128" x="451" y="46"></rect>
  <path d="M 128 80 L 128 716" fill="none" stroke="rgb(0,0,0)" stroke-dasharray="8 4"></path>
  <rect fill="moccasin" height="535" stroke="rgb(0,0,0)" width="8" x="124" y="165"></rect>
  <path d="M 320 80 L 320 716" fill="none" stroke="rgb(0,0,0)" stroke-dasharray="8 4"></path>
  <rect fill="moccasin" height="95" stroke="rgb(0,0,0)" width="8" x="316" y="165"></rect>
  <path d="M 512 80 L 512 716" fill="none" stroke="rgb(0,0,0)" stroke-dasharray="8 4"></path>
  <rect fill="moccasin" height="65" stroke="rgb(0,0,0)" width="8" x="508" y="325"></rect>
  <rect fill="moccasin" height="65" stroke="rgb(0,0,0)" width="8" x="508" y="457"></rect>
  <rect fill="moccasin" height="65" stroke="rgb(0,0,0)" width="8" x="508" y="589"></rect>
  <rect fill="rgb(255,255,255)" height="40" stroke="rgb(0,0,0)" width="128" x="64" y="40"></rect>
  <text fill="rgb(0,0,0)" font-family="sans-serif" font-size="11" font-style="normal" font-weight="normal" text-anchor="middle" textLength="38" x="128.0" y="66">Device</text>
  <rect fill="rgb(255,255,255)" height="40" stroke="rgb(0,0,0)" width="128" x="256" y="40"></rect>
  <text fill="rgb(0,0,0)" font-family="sans-serif" font-size="11" font-style="normal" font-weight="normal" text-anchor="middle" textLength="76" x="320.0" y="66">DHCP Server</text>
  <rect fill="rgb(255,255,255)" height="40" stroke="rgb(0,0,0)" width="128" x="448" y="40"></rect>
  <text fill="rgb(0,0,0)" font-family="sans-serif" font-size="11" font-style="normal" font-weight="normal" text-anchor="middle" textLength="69" x="512.5" y="66">MDT Server</text>
  <path d="M 136 165 L 312 165" fill="none" stroke="rgb(0,0,0)"></path>
  <polygon fill="rgb(0,0,0)" points="304,161 312,165 304,169" stroke="rgb(0,0,0)"></polygon>
  <path d="M 136 260 L 312 260" fill="none" stroke="rgb(0,0,0)"></path>
  <polygon fill="rgb(0,0,0)" points="144,256 136,260 144,264" stroke="rgb(0,0,0)"></polygon>
  <path d="M 136 325 L 504 325" fill="none" stroke="rgb(0,0,0)"></path>
  <polygon fill="rgb(0,0,0)" points="496,321 504,325 496,329" stroke="rgb(0,0,0)"></polygon>
  <path d="M 136 390 L 504 390" fill="none" stroke="rgb(0,0,0)"></path>
  <polygon fill="rgb(0,0,0)" points="144,386 136,390 144,394" stroke="rgb(0,0,0)"></polygon>
  <path d="M 136 457 L 504 457" fill="none" stroke="rgb(0,0,0)"></path>
  <polygon fill="rgb(0,0,0)" points="496,453 504,457 496,461" stroke="rgb(0,0,0)"></polygon>
  <path d="M 136 522 L 504 522" fill="none" stroke="rgb(0,0,0)"></path>
  <polygon fill="rgb(0,0,0)" points="144,518 136,522 144,526" stroke="rgb(0,0,0)"></polygon>
  <path d="M 136 589 L 504 589" fill="none" stroke="rgb(0,0,0)"></path>
  <polygon fill="rgb(0,0,0)" points="496,585 504,589 496,593" stroke="rgb(0,0,0)"></polygon>
  <path d="M 136 654 L 504 654" fill="none" stroke="rgb(0,0,0)"></path>
  <polygon fill="rgb(0,0,0)" points="144,650 136,654 144,658" stroke="rgb(0,0,0)"></polygon>
  <text fill="rgb(0,0,0)" font-family="sans-serif" font-size="11" font-style="normal" font-weight="normal" text-anchor="middle" textLength="162" x="225.0" y="140">Asks for DHCP configuration</text>
  <text fill="rgb(0,0,0)" font-family="sans-serif" font-size="11" font-style="normal" font-weight="normal" text-anchor="middle" textLength="156" x="222.0" y="155">(including PXE service info)</text>
  <text fill="rgb(0,0,0)" font-family="sans-serif" font-size="11" font-style="normal" font-weight="normal" text-anchor="middle" textLength="160" x="228.0" y="235">Returns DHCP configuration</text>
  <text fill="rgb(0,0,0)" font-family="sans-serif" font-size="11" font-style="normal" font-weight="normal" text-anchor="middle" textLength="156" x="230.0" y="250">(including PXE service info)</text>
  <text fill="rgb(0,0,0)" font-family="sans-serif" font-size="11" font-style="normal" font-weight="normal" text-anchor="middle" textLength="178" x="233.0" y="321">Performs Boot Service Discover</text>
  <text fill="rgb(0,0,0)" font-family="sans-serif" font-size="11" font-style="normal" font-weight="normal" text-anchor="middle" textLength="158" x="421.0" y="386">Sends PXE boot information</text>
  <text fill="rgb(0,0,0)" font-family="sans-serif" font-size="11" font-style="normal" font-weight="normal" text-anchor="middle" textLength="155" x="221.5" y="453">Requests BCD file via TFTP</text>
  <text fill="rgb(0,0,0)" font-family="sans-serif" font-size="11" font-style="normal" font-weight="normal" text-anchor="middle" textLength="150" x="425.0" y="518">Delivers BCD file via TFTP</text>
  <text fill="rgb(0,0,0)" font-family="sans-serif" font-size="11" font-style="normal" font-weight="normal" text-anchor="middle" textLength="156" x="222.0" y="585">Requests WIM file via TFTP</text>
  <text fill="rgb(0,0,0)" font-family="sans-serif" font-size="11" font-style="normal" font-weight="normal" text-anchor="middle" textLength="151" x="424.5" y="650">Delivers WIM file via TFTP</text>
</svg>
